<?xml version="1.0" encoding="utf-8"?>
<!-- Generator: Adobe Illustrator 24.0.0, SVG Export Plug-In . SVG Version: 6.00 Build 0)  -->
<svg version="1.1" id="Layer_1" xmlns="http://www.w3.org/2000/svg" xmlns:xlink="http://www.w3.org/1999/xlink" x="0px" y="0px"
	 viewBox="0 0 256 256" enable-background="new 0 0 256 256" xml:space="preserve">
<g>
	<g>
		<g>
			<g>
				<g>
					<g>
						<g>
							<g>
								<g>
									<g>
										<g>
											<g>
												<g>
													<path fill="#F1F2F2" d="M222.978,95.91c0.04,2.036-0.594,4.029-1.803,5.668l-37.008,49.426l-23.945,31.972L135.487,216
														c-1.425,1.918-3.543,3.204-5.902,3.584c-1.051,0.211-2.133,0.211-3.184,0c-2.359-0.38-4.477-1.666-5.902-3.584
														l-20.183-26.964l-28.482-38.032l-36.937-49.327c-2.518-3.356-2.499-7.977,0.046-11.313l25.474-32.206
														c0.895-1.081,2.029-1.939,3.312-2.507c1.214-0.553,2.531-0.84,3.864-0.843h120.862c1.333,0.003,2.651,0.29,3.864,0.843
														c1.367,0.608,2.564,1.54,3.49,2.715l25.178,31.903C222.25,91.881,222.95,93.862,222.978,95.91z"/>
												</g>
											</g>
										</g>
									</g>
								</g>
								<g>
									<g>
										<g>
											<g>
												<g>
													<path fill="#E6E7E8" d="M222.978,95.91c0.04,2.036-0.594,4.029-1.803,5.668l-37.008,49.426l-23.945,31.972L135.487,216
														c-1.425,1.918-3.543,3.204-5.902,3.584c-1.051,0.211-2.133,0.211-3.184,0c-2.359-0.38-4.477-1.666-5.902-3.584
														l-20.183-26.964l-28.482-38.032l-36.937-49.327c-1.255-1.655-1.916-3.685-1.875-5.762L222.978,95.91z"/>
												</g>
											</g>
										</g>
									</g>
								</g>
								<g>
									<g>
										<g>
											<g>
												<g>
													<path fill="#F1F2F2" d="M95.522,95.913l22.32,116.538l2.656,3.549c1.425,1.918,3.543,3.204,5.902,3.584
														c1.051,0.212,2.134,0.212,3.184,0c2.359-0.38,4.477-1.666,5.902-3.584l2.682-3.581l22.312-116.507L95.522,95.913z"/>
												</g>
											</g>
										</g>
									</g>
								</g>
								<g>
									<g>
										<g>
											<g>
												<g>
													<polygon fill="#E6E7E8" points="160.481,95.912 95.521,95.912 128,54.808 													"/>
												</g>
											</g>
										</g>
									</g>
								</g>
								<g>
									<g>
										<g>
											<g>
												<g>
													<path fill="#D1D3D4" d="M222.978,95.91h-62.491l31.809-40.263c1.367,0.608,2.564,1.54,3.49,2.715l25.178,31.903
														C222.237,91.874,222.945,93.858,222.978,95.91z"/>
												</g>
											</g>
										</g>
									</g>
								</g>
								<g>
									<g>
										<g>
											<g>
												<g>
													<path fill="#D1D3D4" d="M95.514,95.91H33.022c0.018-2.01,0.692-3.959,1.921-5.551l25.474-32.206
														c0.895-1.081,2.029-1.939,3.312-2.507L95.514,95.91z"/>
												</g>
											</g>
										</g>
									</g>
								</g>
							</g>
						</g>
					</g>
				</g>
			</g>
		</g>
		<g>
			<g>
				<g>
					<path fill="#FFFFFF" d="M106.39,186.48c-0.63,0-1.22-0.29-1.6-0.8L39.37,98.32c-0.49-0.65-0.76-1.45-0.76-2.27
						c0-0.81,0.26-1.58,0.73-2.23l0.04-0.06L64.8,61.64c0.34-0.38,0.74-0.67,1.2-0.88l0.05-0.02c0.49-0.22,1.01-0.34,1.54-0.34
						h26.29c1.1,0,2,0.9,2,2s-0.9,2-2,2H67.71L42.67,96.06l65.32,87.23c0.32,0.42,0.46,0.95,0.38,1.48
						c-0.07,0.53-0.35,0.99-0.78,1.32C107.24,186.35,106.83,186.48,106.39,186.48z M101.88,64.4c-1.1,0-2-0.9-2-2s0.9-2,2-2
						s2,0.9,2,2S102.98,64.4,101.88,64.4z"/>
				</g>
			</g>
		</g>
	</g>
	<g>
		<g>
			<g>
				<g>
					<g>
						<g>
							<path fill="#FFA91A" d="M92.297,73.181c-2.974,6.471-8.198,11.695-14.669,14.67c-2.33,1.071-2.33,4.351,0,5.422
								c6.471,2.974,11.695,8.198,14.669,14.669c1.071,2.329,4.351,2.329,5.422,0c2.975-6.471,8.198-11.695,14.67-14.669
								c2.329-1.071,2.329-4.351,0-5.422c-6.471-2.975-11.695-8.198-14.67-14.67C96.648,70.851,93.368,70.851,92.297,73.181z"/>
						</g>
					</g>
				</g>
			</g>
		</g>
		<g>
			<g>
				<g>
					<path fill="#F79219" d="M112.389,87.851c-0.949-0.436-1.871-0.921-2.764-1.451c-0.106,0.972-0.682,1.9-1.729,2.381
						c-6.471,2.974-11.695,8.198-14.67,14.669c-0.481,1.047-1.408,1.623-2.381,1.729c0.53,0.892,1.015,1.814,1.451,2.763
						c1.071,2.329,4.351,2.329,5.422,0c2.975-6.471,8.198-11.695,14.67-14.669C114.718,92.202,114.718,88.921,112.389,87.851z"/>
				</g>
			</g>
		</g>
		<g>
			<g>
				<g>
					<g>
						<g>
							<path fill="#FFA91A" d="M166.003,116.736c-3.076,6.693-8.479,12.095-15.171,15.172c-2.409,1.107-2.409,4.5,0,5.607
								c6.693,3.076,12.095,8.478,15.171,15.171c1.107,2.409,4.5,2.409,5.607,0c3.076-6.693,8.479-12.095,15.172-15.171
								c2.409-1.107,2.409-4.5,0-5.607c-6.693-3.076-12.095-8.479-15.172-15.172C170.503,114.327,167.11,114.327,166.003,116.736z"
								/>
						</g>
					</g>
				</g>
			</g>
		</g>
		<g>
			<g>
				<g>
					<path fill="#F79219" d="M186.782,131.908c-2.729-1.254-5.243-2.896-7.473-4.853c-0.29,0.614-0.794,1.147-1.511,1.476
						c-6.693,3.076-12.095,8.478-15.171,15.171c-0.33,0.717-0.862,1.221-1.476,1.511c1.958,2.23,3.599,4.744,4.853,7.473
						c1.107,2.409,4.5,2.409,5.607,0c3.076-6.693,8.479-12.095,15.171-15.171C189.191,136.408,189.191,133.015,186.782,131.908z"/>
				</g>
			</g>
		</g>
		<g>
			<g>
				<g>
					<path fill="#EF7816" d="M186.782,131.908c-0.925-0.425-1.825-0.895-2.698-1.406c-0.092,1.027-0.69,2.014-1.794,2.522
						c-6.693,3.076-12.095,8.479-15.171,15.171c-0.507,1.104-1.494,1.701-2.522,1.794c0.511,0.873,0.981,1.773,1.406,2.698
						c1.107,2.409,4.5,2.409,5.607,0c3.076-6.693,8.479-12.095,15.171-15.171C189.191,136.408,189.191,133.015,186.782,131.908z"/>
				</g>
			</g>
		</g>
		<g>
			<g>
				<g>
					<g>
						<g>
							<path fill="#FFA91A" d="M127.411,167.899c-1.994,4.338-5.495,7.839-9.833,9.833c-1.562,0.718-1.562,2.917,0,3.634
								c4.338,1.994,7.839,5.495,9.833,9.833c0.718,1.561,2.917,1.561,3.634,0c1.994-4.338,5.495-7.839,9.833-9.833
								c1.561-0.718,1.561-2.917,0-3.634c-4.338-1.994-7.839-5.495-9.833-9.833C130.328,166.337,128.129,166.337,127.411,167.899z"
								/>
						</g>
					</g>
				</g>
			</g>
		</g>
		<g>
			<g>
				<g>
					<path fill="#F79219" d="M140.879,177.732c-1.214-0.558-2.363-1.235-3.432-2.014c-0.166,0.481-0.52,0.908-1.061,1.156
						c-4.338,1.994-7.839,5.495-9.833,9.833c-0.249,0.541-0.675,0.894-1.156,1.061c0.78,1.069,1.456,2.217,2.014,3.432
						c0.718,1.561,2.917,1.561,3.634,0c1.994-4.338,5.495-7.839,9.833-9.833C142.44,180.649,142.44,178.45,140.879,177.732z"/>
				</g>
			</g>
		</g>
	</g>
</g>
</svg>
