<?xml version="1.0" encoding="utf-8"?>
<!-- Generator: Adobe Illustrator 24.0.0, SVG Export Plug-In . SVG Version: 6.00 Build 0)  -->
<svg version="1.1" id="Layer_1" xmlns="http://www.w3.org/2000/svg" xmlns:xlink="http://www.w3.org/1999/xlink" x="0px" y="0px"
	 viewBox="0 0 256 256" enable-background="new 0 0 256 256" xml:space="preserve">
<g>
	<g>
		<g>
			<path fill="#8C3F0A" d="M177.024,39.074H78.976c-3.573,0-6.874,1.906-8.66,5l-49.024,84.912c-1.786,3.094-1.786,6.906,0,10
				l49.024,84.912c1.786,3.094,5.088,5,8.66,5h98.048c3.573,0,6.874-1.906,8.66-5l49.024-84.912c1.786-3.094,1.786-6.906,0-10
				l-49.024-84.912C183.898,40.98,180.597,39.074,177.024,39.074z"/>
		</g>
	</g>
	<g>
		<g>
			<g>
				<path fill="#995222" d="M67,208.15c-0.72,0-1.38-0.38-1.74-1l-40.51-70.17c-0.52-0.91-0.8-1.94-0.8-3
					c0-1.05,0.28-2.09,0.81-2.99l49.02-84.92c1.07-1.84,3.06-2.99,5.2-3h62.55c1.109,0,2,0.9,2,2c0,1.11-0.891,2-2,2H78.98
					c-0.71,0-1.39,0.4-1.74,1l-49.02,84.92c-0.18,0.3-0.27,0.64-0.27,0.99c0,0.36,0.1,0.7,0.27,1.01l40.5,70.15
					c0.01,0,0.01,0.01,0.01,0.01c0.27,0.46,0.34,1,0.2,1.52c-0.14,0.51-0.47,0.94-0.93,1.21C67.69,208.06,67.35,208.15,67,208.15z
					 M149.53,47.07c-1.101,0-2-0.89-2-2c0-1.1,0.899-2,2-2c1.109,0,2,0.9,2,2C151.53,46.18,150.64,47.07,149.53,47.07z"/>
			</g>
		</g>
	</g>
	<g>
		<g>
			<path fill="#7C3108" d="M171.112,55.314H84.888c-1.429,0-2.75,0.762-3.464,2l-43.112,74.672c-0.715,1.238-0.715,2.762,0,4
				l43.112,74.672c0.715,1.238,2.035,2,3.464,2h86.224c1.429,0,2.75-0.762,3.464-2l43.112-74.672c0.715-1.238,0.715-2.762,0-4
				l-43.112-74.672C173.861,56.076,172.541,55.314,171.112,55.314z"/>
		</g>
	</g>
	<g>
		<g>
			<g>
				<g>
					<path fill="#FFA91A" d="M100.649,175.982H56.628c-1.352,0-2.339-1.276-2-2.585l7.538-29.074c0.236-0.911,1.059-1.548,2-1.548
						h28.945c0.941,0,1.764,0.636,2,1.548l7.538,29.074C102.988,174.706,102,175.982,100.649,175.982z"/>
				</g>
			</g>
		</g>
		<g>
			<g>
				<path fill="#F79219" d="M102.649,173.397l-7.538-29.074c-0.236-0.911-1.059-1.548-2-1.548h-5.808l5.347,20.622
					c0.339,1.308-0.648,2.585-2,2.585H56.55l-1.923,7.415c-0.339,1.308,0.648,2.585,2,2.585h44.021
					C102,175.982,102.988,174.706,102.649,173.397z"/>
			</g>
		</g>
		<g>
			<g>
				<g>
					<path fill="#FFA91A" d="M150.011,175.982h-44.021c-1.352,0-2.339-1.276-2-2.585l7.538-29.074c0.236-0.911,1.059-1.548,2-1.548
						h28.945c0.941,0,1.764,0.636,2,1.548l7.538,29.074C152.35,174.706,151.362,175.982,150.011,175.982z"/>
				</g>
			</g>
		</g>
		<g>
			<g>
				<path fill="#F79219" d="M152.011,173.397l-7.538-29.074c-0.236-0.911-1.059-1.548-2-1.548h-5.808l5.347,20.622
					c0.339,1.308-0.648,2.585-2,2.585h-34.099l-1.922,7.415c-0.339,1.308,0.648,2.585,2,2.585h44.021
					C151.362,175.982,152.35,174.706,152.011,173.397z"/>
			</g>
		</g>
		<g>
			<g>
				<g>
					<path fill="#FFC91D" d="M124.756,142.775H80.735c-1.352,0-2.339-1.276-2-2.585l7.538-29.074c0.236-0.911,1.059-1.548,2-1.548
						h28.945c0.941,0,1.764,0.636,2,1.548l7.538,29.074C127.095,141.499,126.107,142.775,124.756,142.775z"/>
				</g>
			</g>
		</g>
		<g>
			<g>
				<path fill="#FFA91A" d="M126.756,140.19l-7.538-29.074c-0.236-0.911-1.059-1.548-2-1.548h-5.808l5.347,20.622
					c0.339,1.308-0.648,2.585-2,2.585H80.657l-1.922,7.415c-0.339,1.308,0.648,2.585,2,2.585h44.021
					C126.107,142.775,127.095,141.499,126.756,140.19z"/>
			</g>
		</g>
		<g>
			<g>
				<g>
					<path fill="#FFC91D" d="M174.117,142.775h-44.021c-1.352,0-2.339-1.276-2-2.585l7.538-29.074c0.236-0.911,1.059-1.548,2-1.548
						h28.945c0.941,0,1.764,0.636,2,1.548l7.538,29.074C176.457,141.499,175.469,142.775,174.117,142.775z"/>
				</g>
			</g>
		</g>
		<g>
			<g>
				<path fill="#FFA91A" d="M176.118,140.19l-7.538-29.074c-0.236-0.911-1.059-1.548-2-1.548h-5.808l5.347,20.622
					c0.339,1.308-0.648,2.585-2,2.585h-34.099l-1.923,7.415c-0.339,1.308,0.648,2.585,2,2.585h44.021
					C175.469,142.775,176.457,141.499,176.118,140.19z"/>
			</g>
		</g>
		<g>
			<g>
				<g>
					<path fill="#FFA91A" d="M150.011,109.568h-44.021c-1.352,0-2.339-1.276-2-2.585l7.538-29.074c0.236-0.911,1.059-1.548,2-1.548
						h28.945c0.941,0,1.764,0.636,2,1.548l7.538,29.074C152.35,108.292,151.362,109.568,150.011,109.568z"/>
				</g>
			</g>
		</g>
		<g>
			<g>
				<path fill="#F79219" d="M152.011,106.984l-7.538-29.074c-0.236-0.911-1.059-1.548-2-1.548h-5.808l5.347,20.622
					c0.339,1.308-0.648,2.585-2,2.585h-34.099l-1.922,7.415c-0.339,1.308,0.648,2.585,2,2.585h44.021
					C151.362,109.568,152.35,108.292,152.011,106.984z"/>
			</g>
		</g>
		<g>
			<g>
				<g>
					<path fill="#FFA91A" d="M199.372,175.982h-44.021c-1.352,0-2.339-1.276-2-2.585l7.538-29.074c0.236-0.911,1.059-1.548,2-1.548
						h28.945c0.941,0,1.764,0.636,2,1.548l7.538,29.074C201.712,174.706,200.724,175.982,199.372,175.982z"/>
				</g>
			</g>
		</g>
		<g>
			<g>
				<path fill="#F79219" d="M201.372,173.397l-7.538-29.074c-0.236-0.911-1.059-1.548-2-1.548h-5.808l5.347,20.622
					c0.339,1.308-0.648,2.585-2,2.585h-34.099l-1.922,7.415c-0.339,1.308,0.648,2.585,2,2.585h44.021
					C200.724,175.982,201.712,174.706,201.372,173.397z"/>
			</g>
		</g>
		<g>
			<g>
				<path fill="#EF7816" d="M201.372,173.397l-7.538-29.074c-0.236-0.911-1.059-1.548-2-1.548h-2.105l6.643,25.622
					c0.339,1.308-0.648,2.585-2,2.585h-40.395l-0.626,2.415c-0.339,1.308,0.648,2.585,2,2.585h44.021
					C200.724,175.982,201.712,174.706,201.372,173.397z"/>
			</g>
		</g>
	</g>
	<g>
		<g>
			<g>
				<g>
					<g>
						<g>
							<path fill="#FFFFFF" d="M80.418,65.851c-3.048,6.632-8.402,11.985-15.033,15.034c-2.387,1.097-2.387,4.459,0,5.556
								c6.632,3.048,11.985,8.401,15.033,15.033c1.097,2.387,4.459,2.387,5.556,0c3.048-6.632,8.402-11.985,15.034-15.033
								c2.387-1.097,2.387-4.459,0-5.556c-6.632-3.048-11.985-8.402-15.034-15.034C84.877,63.464,81.515,63.464,80.418,65.851z"/>
						</g>
					</g>
				</g>
			</g>
		</g>
		<g>
			<g>
				<g>
					<path fill="#E6E7E8" d="M101.008,80.885c-1.121-0.515-2.205-1.096-3.248-1.738c-0.148,0.943-0.732,1.826-1.752,2.295
						c-6.632,3.048-11.985,8.401-15.034,15.033c-0.469,1.02-1.352,1.604-2.294,1.752c0.642,1.043,1.223,2.127,1.738,3.248
						c1.097,2.387,4.459,2.387,5.556,0c3.048-6.632,8.402-11.985,15.034-15.033C103.395,85.344,103.395,81.982,101.008,80.885z"/>
				</g>
			</g>
		</g>
		<g>
			<g>
				<g>
					<g>
						<g>
							<path fill="#FFFFFF" d="M195.952,100.487c-3.153,6.859-8.689,12.395-15.548,15.548c-2.469,1.135-2.469,4.612,0,5.746
								c6.859,3.153,12.395,8.689,15.548,15.548c1.135,2.469,4.612,2.469,5.746,0c3.153-6.859,8.689-12.395,15.548-15.548
								c2.469-1.135,2.469-4.612,0-5.746c-6.859-3.153-12.395-8.689-15.548-15.548C200.564,98.018,197.087,98.018,195.952,100.487z"
								/>
						</g>
					</g>
				</g>
			</g>
		</g>
		<g>
			<g>
				<g>
					<path fill="#E6E7E8" d="M217.247,116.035c-1.095-0.503-2.156-1.067-3.179-1.688c-0.137,0.998-0.744,1.939-1.821,2.434
						c-6.859,3.153-12.395,8.689-15.548,15.548c-0.495,1.077-1.436,1.684-2.434,1.821c0.62,1.023,1.184,2.084,1.688,3.179
						c1.135,2.469,4.612,2.469,5.746,0c3.153-6.859,8.689-12.395,15.548-15.548C219.716,120.647,219.716,117.17,217.247,116.035z"/>
				</g>
			</g>
		</g>
		<g>
			<g>
				<g>
					<g>
						<g>
							<path fill="#FFFFFF" d="M126.403,182.92c-2.043,4.446-5.632,8.034-10.077,10.077c-1.6,0.736-1.6,2.989,0,3.725
								c4.445,2.043,8.034,5.632,10.077,10.077c0.736,1.6,2.989,1.6,3.725,0c2.043-4.446,5.632-8.034,10.077-10.077
								c1.6-0.736,1.6-2.989,0-3.725c-4.446-2.043-8.034-5.632-10.077-10.077C129.392,181.319,127.138,181.319,126.403,182.92z"/>
						</g>
					</g>
				</g>
			</g>
		</g>
		<g>
			<g>
				<g>
					<path fill="#E6E7E8" d="M140.205,192.997c-1.407-0.647-2.728-1.448-3.942-2.383c-0.18,0.461-0.533,0.866-1.058,1.107
						c-4.446,2.043-8.034,5.632-10.077,10.077c-0.241,0.525-0.646,0.878-1.107,1.058c0.934,1.214,1.736,2.535,2.383,3.942
						c0.736,1.6,2.989,1.6,3.725,0c2.043-4.446,5.632-8.034,10.077-10.077C141.805,195.986,141.805,193.732,140.205,192.997z"/>
				</g>
			</g>
		</g>
	</g>
</g>
</svg>
